<?xml version="1.0" encoding="UTF-8" standalone="no"?>
<!DOCTYPE svg PUBLIC "-//W3C//DTD SVG 1.1//EN" "http://www.w3.org/Graphics/SVG/1.1/DTD/svg11.dtd">
<svg version="1.1" xmlns="http://www.w3.org/2000/svg" xmlns:xlink="http://www.w3.org/1999/xlink" preserveAspectRatio="xMidYMid meet" viewBox="0 0 640 320" width="640" height="320"><defs><path d="M398.54 161.62C398.54 204.45 363.77 239.22 320.94 239.22C278.11 239.22 243.34 204.45 243.34 161.62C243.34 118.79 278.11 84.02 320.94 84.02C363.77 84.02 398.54 118.79 398.54 161.62Z" id="db6GIFCOp"></path><text id="c1oSG7yfn0" x="399.49" y="255.89" font-size="170" font-family="Arial" font-weight="normal" font-style="normal" letter-spacing="0" alignment-baseline="before-edge" transform="matrix(0.9999999999999999 0 0 0.9999999999999999 -275.32352941176566 -186.07843137254923)" style="line-height:100%" xml:space="preserve" dominant-baseline="text-before-edge"><tspan x="399.49" dy="0em" alignment-baseline="before-edge" dominant-baseline="text-before-edge" text-anchor="middle">SC</tspan></text><text id="afWJQ0h5c" x="303.1" y="255.89" font-size="170" font-family="Arial" font-weight="normal" font-style="normal" letter-spacing="0" alignment-baseline="before-edge" transform="matrix(0.9999999999999999 0 0 0.9999999999999999 156.57820762713686 -184.07843137254923)" style="line-height:100%" xml:space="preserve" dominant-baseline="text-before-edge"><tspan x="303.1" dy="0em" alignment-baseline="before-edge" dominant-baseline="text-before-edge" text-anchor="middle">P</tspan></text><text id="i2WOzYlgRp" x="376.23" y="237.89" font-size="115" font-family="Arial" font-weight="normal" font-style="normal" letter-spacing="0" alignment-baseline="before-edge" transform="matrix(0.9999999999999999 0 0 0.9999999999999999 187.82448463256253 -173.70441940216966)" style="line-height:100%" xml:space="preserve" dominant-baseline="text-before-edge"><tspan x="376.23" dy="0em" alignment-baseline="before-edge" dominant-baseline="text-before-edge" text-anchor="middle">in</tspan></text><path d="M320.94 106.43L271.13 134.02L271.13 189.22L320.94 216.81L370.75 189.22L370.75 134.02L320.94 106.43Z" id="a7q4bHhWkM"></path><text id="d5hd3X43MQ" x="264.5" y="268.65" font-size="65" font-family="Arial" font-weight="normal" font-style="normal" letter-spacing="0" alignment-baseline="before-edge" transform="matrix(1 0 0 1 210.5490196078431 -104.94305894400733)" style="line-height:100%" xml:space="preserve" dominant-baseline="text-before-edge"><tspan x="264.5" dy="0em" alignment-baseline="before-edge" dominant-baseline="text-before-edge" text-anchor="start">rock</tspan></text></defs><g><g><g><g><filter id="shadow13728918" x="221.34" y="62.02" width="201.2" height="201.2" filterUnits="userSpaceOnUse" primitiveUnits="userSpaceOnUse"><feFlood></feFlood><feComposite in2="SourceAlpha" operator="in"></feComposite><feGaussianBlur stdDeviation="2.65"></feGaussianBlur><feOffset dx="2" dy="-2" result="afterOffset"></feOffset><feFlood flood-color="#008cff" flood-opacity="0.69"></feFlood><feComposite in2="afterOffset" operator="in"></feComposite><feMorphology operator="dilate" radius="1"></feMorphology><feComposite in2="SourceAlpha" operator="out"></feComposite></filter><path d="M398.54 161.62C398.54 204.45 363.77 239.22 320.94 239.22C278.11 239.22 243.34 204.45 243.34 161.62C243.34 118.79 278.11 84.02 320.94 84.02C363.77 84.02 398.54 118.79 398.54 161.62Z" id="c74dx77BR" fill="white" fill-opacity="1" filter="url(#shadow13728918)"></path></g><g><filter id="shadow738654" x="221.34" y="62.02" width="201.2" height="201.2" filterUnits="userSpaceOnUse" primitiveUnits="userSpaceOnUse"><feFlood></feFlood><feComposite in2="SourceAlpha" operator="in"></feComposite><feGaussianBlur stdDeviation="2.65"></feGaussianBlur><feOffset dx="-2" dy="2" result="afterOffset"></feOffset><feFlood flood-color="#c000ff" flood-opacity="0.69"></feFlood><feComposite in2="afterOffset" operator="in"></feComposite><feMorphology operator="dilate" radius="1"></feMorphology><feComposite in2="SourceAlpha" operator="out"></feComposite></filter><path d="M398.54 161.62C398.54 204.45 363.77 239.22 320.94 239.22C278.11 239.22 243.34 204.45 243.34 161.62C243.34 118.79 278.11 84.02 320.94 84.02C363.77 84.02 398.54 118.79 398.54 161.62Z" id="b1898uWQe2" fill="white" fill-opacity="1" filter="url(#shadow738654)"></path></g><use xlink:href="#db6GIFCOp" opacity="1" fill="#000000" fill-opacity="1"></use></g><g id="c1cYCcQQJX"><use xlink:href="#c1oSG7yfn0" opacity="1" fill="#2196f3" fill-opacity="1"></use></g><g id="jsbvEsLRI"><use xlink:href="#afWJQ0h5c" opacity="1" fill="#2196f3" fill-opacity="1"></use></g><g id="b4BAKbZlBA"><use xlink:href="#i2WOzYlgRp" opacity="1" fill="#2196f3" fill-opacity="1"></use></g><g><use xlink:href="#a7q4bHhWkM" opacity="1" fill="#ffffff" fill-opacity="1"></use></g><g id="c1gkFwYT3z"><use xlink:href="#d5hd3X43MQ" opacity="1" fill="#cf48f3" fill-opacity="1"></use><g><use xlink:href="#d5hd3X43MQ" opacity="1" fill-opacity="0" stroke="#cf48f3" stroke-width="4" stroke-opacity="1"></use></g></g></g></g></svg>
